<?xml version="1.0" encoding="UTF-8"?>
<!DOCTYPE svg PUBLIC "-//W3C//DTD SVG 1.1//EN" "http://www.w3.org/Graphics/SVG/1.1/DTD/svg11.dtd">
<!-- Creator: CorelDRAW -->
<svg xmlns="http://www.w3.org/2000/svg" xml:space="preserve" width="48px" height="48px" version="1.1" style="shape-rendering:geometricPrecision; text-rendering:geometricPrecision; image-rendering:optimizeQuality; fill-rule:evenodd; clip-rule:evenodd"
viewBox="0 0 48 48"
 xmlns:xlink="http://www.w3.org/1999/xlink"
 xmlns:xodm="http://www.corel.com/coreldraw/odm/2003">
 <defs>
  <style type="text/css">
   <![CDATA[
    .str0 {stroke:black;stroke-width:0.04;stroke-miterlimit:22.9256}
    .fil1 {fill:none}
    .fil0 {fill:#FEFEFE}
    .fil3 {fill:#A46C43}
    .fil4 {fill:#E9C58E}
    .fil2 {fill:#A56C43;fill-rule:nonzero}
   ]]>
  </style>
   <clipPath id="id0">
    <path d="M24 0.71c12.86,0 23.29,10.43 23.29,23.29 0,12.86 -10.43,23.29 -23.29,23.29 -12.86,0 -23.29,-10.43 -23.29,-23.29 0,-12.86 10.43,-23.29 23.29,-23.29z"/>
   </clipPath>
   <clipPath id="id1">
    <path d="M24 0.71c12.86,0 23.29,10.43 23.29,23.29 0,12.86 -10.43,23.29 -23.29,23.29 -12.86,0 -23.29,-10.43 -23.29,-23.29 0,-12.86 10.43,-23.29 23.29,-23.29z"/>
   </clipPath>
 </defs>
 <g id="Layer_x0020_1">
  <metadata id="CorelCorpID_0Corel-Layer"/>
  <path class="fil0" d="M24 0.71c12.86,0 23.29,10.43 23.29,23.29 0,12.86 -10.43,23.29 -23.29,23.29 -12.86,0 -23.29,-10.43 -23.29,-23.29 0,-12.86 10.43,-23.29 23.29,-23.29z"/>
  <g style="clip-path:url(#id0)">
   <g id="_1908024998224">
   </g>
  </g>
  <path id="_1" class="fil1" d="M24 0.71c12.86,0 23.29,10.43 23.29,23.29 0,12.86 -10.43,23.29 -23.29,23.29 -12.86,0 -23.29,-10.43 -23.29,-23.29 0,-12.86 10.43,-23.29 23.29,-23.29z"/>
  <g style="clip-path:url(#id1)">
   <path id="_2" class="fil1 str0" d="M0.71 0.71l46.58 46.58m0 -46.58l-46.58 46.58"/>
  </g>
  <g id="_1908024993856">
   <path class="fil2" d="M24 0.31c6.54,0 12.47,2.65 16.75,6.94 4.29,4.28 6.94,10.21 6.94,16.75 0,6.54 -2.65,12.47 -6.94,16.75 -4.28,4.29 -10.21,6.94 -16.75,6.94 -6.54,0 -12.47,-2.65 -16.75,-6.94 -4.29,-4.28 -6.94,-10.21 -6.94,-16.75 0,-6.54 2.65,-12.47 6.94,-16.75 4.28,-4.29 10.21,-6.94 16.75,-6.94zm16.19 7.5c-4.15,-4.14 -9.87,-6.7 -16.19,-6.7 -6.32,0 -12.04,2.56 -16.19,6.7 -4.14,4.15 -6.7,9.87 -6.7,16.19 0,6.32 2.56,12.04 6.7,16.19 4.15,4.14 9.87,6.7 16.19,6.7 6.32,0 12.04,-2.56 16.19,-6.7 4.14,-4.15 6.7,-9.87 6.7,-16.19 0,-6.32 -2.56,-12.04 -6.7,-16.19z"/>
   <g>
    <g>
     <path class="fil3" d="M42.92 28.5c-0.57,0.28 -9.41,4.86 -11.18,5.74l-0.09 -19.51c-0.58,0.29 -8.49,4.97 -9.25,5.44 -0.5,-0.28 -13.57,-8.68 -14.13,-9.05 -0.02,1.91 0.01,20.84 0.04,21.94 0.58,0.33 2.82,1.39 3.33,1.59 0.59,-0.33 2.53,-1.49 3.08,-1.82 0,-0.54 -0.08,-11.67 -0.04,-12.4 2.6,1.63 5.24,3.19 7.83,4.81 0.88,-0.46 5.54,-3.11 6.67,-3.74l0.01 16.28c0.58,0.32 2.18,1.33 2.61,1.55 3.73,-1.88 7.4,-3.91 11.07,-5.9l0.05 -4.93z"/>
     <path class="fil4" d="M38.12 30.97c1.62,-0.83 4.23,-2.18 4.8,-2.47 -0.22,0.01 -6.41,0.2 -6.54,0.2l-0.03 -16.61c-0.41,0.22 -2.69,1.47 -3.26,1.78l-0.01 17.25c0.63,-0.01 4.78,-0.14 5.04,-0.15z"/>
    </g>
    <path class="fil3" d="M25.03 30.4l0.11 -4.42c-0.43,0.21 -2.32,1.12 -2.76,1.33 -0.48,-0.33 -5.28,-3.6 -6.25,-4.22 0,0.15 0.15,4.84 0.16,5.19 0.28,0.18 5.16,3.24 5.71,3.58 0.48,-0.23 2.94,-1.42 3.03,-1.46z"/>
   </g>
  </g>
 </g>
</svg>
