<?xml version="1.0" encoding="UTF-8"?>
<!DOCTYPE svg PUBLIC "-//W3C//DTD SVG 1.1//EN" "http://www.w3.org/Graphics/SVG/1.1/DTD/svg11.dtd">
<!-- Creator: CorelDRAW -->
<svg xmlns="http://www.w3.org/2000/svg" xml:space="preserve" width="160px" height="160px" version="1.1" style="shape-rendering:geometricPrecision; text-rendering:geometricPrecision; image-rendering:optimizeQuality; fill-rule:evenodd; clip-rule:evenodd"
viewBox="0 0 160 160"
 xmlns:xlink="http://www.w3.org/1999/xlink"
 xmlns:xodm="http://www.corel.com/coreldraw/odm/2003">
 <defs>
  <style type="text/css">
   <![CDATA[
    .str0 {stroke:#A56C43;stroke-width:1.48;stroke-miterlimit:22.9256}
    .fil3 {fill:none}
    .fil0 {fill:#FEFEFE}
    .fil1 {fill:#A46C43}
    .fil2 {fill:#E9C58E}
   ]]>
  </style>
   <clipPath id="id0">
    <path d="M36.31 2.09c18.74,0 33.93,15.19 33.93,33.93 0,18.75 -15.19,33.94 -33.93,33.94 -18.75,0 -33.94,-15.19 -33.94,-33.94 0,-18.74 15.19,-33.93 33.94,-33.93z"/>
   </clipPath>
 </defs>
 <g id="Layer_x0020_1">
  <metadata id="CorelCorpID_0Corel-Layer"/>
  <path class="fil0" d="M36.31 2.09c18.74,0 33.93,15.19 33.93,33.93 0,18.75 -15.19,33.94 -33.93,33.94 -18.75,0 -33.94,-15.19 -33.94,-33.94 0,-18.74 15.19,-33.93 33.94,-33.93z"/>
  <g style="clip-path:url(#id0)">
   <g id="_1908207102528">
    <g>
     <g>
      <path id="_1" class="fil1" d="M63.87 42.58c-0.82,0.41 -13.71,7.08 -16.29,8.37l-0.13 -28.44c-0.84,0.43 -12.37,7.25 -13.47,7.93 -0.73,-0.41 -19.78,-12.65 -20.58,-13.18 -0.03,2.77 0.01,30.35 0.04,31.96 0.85,0.48 4.12,2.03 4.85,2.32 0.86,-0.48 3.7,-2.17 4.5,-2.66 0,-0.78 -0.11,-17 -0.06,-18.06 3.78,2.38 7.64,4.65 11.41,7.02 1.27,-0.69 8.07,-4.54 9.72,-5.47l0.01 23.73c0.84,0.47 3.17,1.94 3.8,2.25 5.43,-2.73 10.77,-5.69 16.13,-8.59l0.07 -7.18z"/>
      <path class="fil2" d="M56.88 46.18c2.36,-1.22 6.16,-3.17 6.99,-3.6 -0.32,0.01 -9.33,0.29 -9.53,0.3l-0.05 -24.21c-0.58,0.32 -3.91,2.15 -4.74,2.59l-0.02 25.14c0.92,-0.01 6.96,-0.21 7.35,-0.22z"/>
     </g>
     <path class="fil1" d="M37.8 45.34l0.17 -6.43c-0.63,0.3 -3.39,1.64 -4.03,1.94 -0.7,-0.49 -7.68,-5.24 -9.1,-6.16 0,0.22 0.21,7.06 0.23,7.57 0.42,0.27 7.53,4.72 8.33,5.22 0.7,-0.34 4.27,-2.07 4.4,-2.14z"/>
    </g>
   </g>
  </g>
  <path class="fil3 str0" d="M36.31 2.09c18.74,0 33.93,15.19 33.93,33.93 0,18.75 -15.19,33.94 -33.93,33.94 -18.75,0 -33.94,-15.19 -33.94,-33.94 0,-18.74 15.19,-33.93 33.94,-33.93z"/>
 </g>
</svg>
